<svg width="50" height="45" viewBox="0 0 50 45" fill="none" xmlns="http://www.w3.org/2000/svg">
<g clip-path="url(#clip0_509_178)">
<path d="M46.5099 -0.257758C45.8879 -0.212506 45.2774 -0.0665882 44.7022 0.174304H44.6945C44.1423 0.393241 41.517 1.49762 37.5257 3.17162L23.2231 9.1953C12.9602 13.5159 2.8716 17.7707 2.8716 17.7707L2.99172 17.7242C2.99172 17.7242 2.29616 17.9528 1.5696 18.4507C1.12073 18.7364 0.734483 19.1101 0.434221 19.5493C0.0777214 20.0724 -0.209029 20.8726 -0.102466 21.6999C0.071909 23.0988 0.978659 23.9377 1.62966 24.4008C2.28841 24.8697 2.91616 25.0886 2.91616 25.0886H2.93166L12.3925 28.2758C12.8168 29.6379 15.2755 37.7211 15.8664 39.5831C16.2152 40.6952 16.5542 41.3907 16.9785 41.9216C17.1839 42.1929 17.4242 42.4196 17.7128 42.6017C17.8629 42.689 18.0229 42.7579 18.1895 42.8071L18.0926 42.7838C18.1217 42.7916 18.1449 42.8148 18.1662 42.8226C18.2437 42.8439 18.296 42.8516 18.3948 42.8671C19.8925 43.3205 21.0957 42.3905 21.0957 42.3905L21.1635 42.3362L26.7493 37.2503L36.1113 44.4326L36.3245 44.5237C38.2755 45.3801 40.2518 44.9034 41.2961 44.0626C42.3482 43.2159 42.757 42.1328 42.757 42.1328L42.8248 41.9584L50.0594 4.89599C50.2648 3.98149 50.3171 3.12512 50.0904 2.29393C49.8566 1.45272 49.3169 0.729218 48.5772 0.265366C47.9561 -0.112223 47.2359 -0.294477 46.5099 -0.257758ZM46.3142 3.71412C46.3065 3.83618 46.3297 3.82262 46.2755 4.05705V4.07837L39.1087 40.7552C39.0777 40.8076 39.0253 40.9219 38.882 41.0362C38.7308 41.1563 38.6107 41.2319 37.981 40.9819L26.5304 32.2031L19.6135 38.5077L21.0667 29.2271L39.7752 11.7896C40.5463 11.0727 40.2886 10.9216 40.2886 10.9216C40.3428 10.042 39.1242 10.6639 39.1242 10.6639L15.5332 25.2785L15.5254 25.2397L4.21816 21.4326V21.4248L4.1891 21.419C4.20892 21.4124 4.22833 21.4046 4.24722 21.3957L4.30922 21.3647L4.36928 21.3434C4.36928 21.3434 14.4656 17.0887 24.7285 12.7681C29.8668 10.6039 35.0438 8.42418 39.0253 6.74243C41.3867 5.7485 43.7504 4.76037 46.1166 3.77805C46.2755 3.71605 46.1999 3.71412 46.3142 3.71412Z" fill="#9A9D21"/>
</g>
<defs>
<clipPath id="clip0_509_178">
<rect width="50" height="45" fill="white"/>
</clipPath>
</defs>
</svg>
