<svg width="757" height="689" viewBox="0 0 757 689" fill="none" xmlns="http://www.w3.org/2000/svg">
<path d="M334.523 26.7145C127.609 383.969 4.96326 597.609 2.39166 605.324C-1.76246 618.38 -0.377752 640.337 5.5567 652.8C11.0955 664.273 25.536 678.714 37.405 684.45C44.7241 688.011 49.6695 689 65.0991 689C87.8478 689 97.7386 684.846 112.179 669.416C118.905 662.295 154.116 602.753 235.22 462.106C297.73 353.505 349.557 265.478 350.349 266.269C352.129 268.049 446.882 432.434 446.882 433.818C446.882 434.412 423.54 434.807 395.055 434.807C337.886 434.807 324.83 436.588 309.994 445.292C300.301 451.028 289.619 462.699 283.487 474.37C277.948 485.448 277.355 510.373 282.498 524.022C290.411 544.99 309.599 561.211 331.161 565.365C339.469 566.948 392.483 567.344 509.59 566.948L676.348 566.355L658.347 534.704C648.258 517.296 592.277 420.169 533.723 318.69C474.972 217.211 427.101 133.733 427.101 133.139C427.101 132.15 352.722 2.18544 350.942 0.00946917C350.546 -0.386161 343.227 11.6806 334.523 26.7145Z" fill="#494949"/>
<path d="M692.669 591.224L741.476 665.405C747.967 675.27 740.891 688.396 729.082 688.396H412.299C407.277 688.396 402.596 685.856 399.86 681.645L351.64 607.465C345.224 597.595 352.308 584.543 364.079 584.543H680.275C685.267 584.543 689.924 587.054 692.669 591.224Z" fill="#9A9D21"/>
</svg>
