<svg width="42" height="42" viewBox="0 0 42 42" fill="none" xmlns="http://www.w3.org/2000/svg">
<path d="M14.048 32.5992C14.048 32.7633 13.8532 32.8945 13.6077 32.8945C13.3282 32.9191 13.1335 32.7879 13.1335 32.5992C13.1335 32.4352 13.3282 32.3039 13.5738 32.3039C13.8278 32.2793 14.048 32.4105 14.048 32.5992ZM11.4145 32.2301C11.3552 32.3941 11.5246 32.5828 11.7786 32.632C11.9988 32.7141 12.2528 32.632 12.3036 32.468C12.3544 32.3039 12.1935 32.1152 11.9395 32.0414C11.7194 31.984 11.4738 32.066 11.4145 32.2301ZM15.1573 32.0906C14.9117 32.148 14.7423 32.3039 14.7677 32.4926C14.7931 32.6566 15.0133 32.7633 15.2673 32.7059C15.5129 32.6484 15.6823 32.4926 15.6569 32.3285C15.6315 32.1727 15.4028 32.066 15.1573 32.0906ZM20.729 0.65625C8.98427 0.65625 0 9.29414 0 20.6719C0 29.7691 5.91048 37.5539 14.3528 40.2938C15.4367 40.4824 15.8177 39.8344 15.8177 39.3012C15.8177 38.7926 15.7923 35.9871 15.7923 34.2645C15.7923 34.2645 9.86492 35.4949 8.62016 31.8199C8.62016 31.8199 7.65484 29.4328 6.26613 28.8176C6.26613 28.8176 4.32702 27.5297 6.40161 27.5543C6.40161 27.5543 8.51008 27.7184 9.67016 29.6707C11.5246 32.8371 14.6323 31.9266 15.8431 31.3852C16.0379 30.0727 16.5883 29.1621 17.198 28.6207C12.4645 28.1121 7.68871 27.4477 7.68871 19.5562C7.68871 17.3004 8.33226 16.1684 9.6871 14.7246C9.46694 14.1914 8.74718 11.993 9.90726 9.15469C11.677 8.62148 15.75 11.3695 15.75 11.3695C17.4435 10.9102 19.2641 10.6723 21.0677 10.6723C22.8714 10.6723 24.6919 10.9102 26.3855 11.3695C26.3855 11.3695 30.4585 8.61328 32.2282 9.15469C33.3883 12.0012 32.6685 14.1914 32.4484 14.7246C33.8032 16.1766 34.6331 17.3086 34.6331 19.5562C34.6331 27.4723 29.6456 28.1039 24.9121 28.6207C25.6911 29.2687 26.3516 30.4992 26.3516 32.427C26.3516 35.1914 26.3262 38.6121 26.3262 39.2848C26.3262 39.818 26.7157 40.466 27.7911 40.2773C36.2589 37.5539 42 29.7691 42 20.6719C42 9.29414 32.4738 0.65625 20.729 0.65625ZM8.23065 28.9488C8.12056 29.0309 8.14597 29.2195 8.28992 29.3754C8.4254 29.5066 8.62016 29.5641 8.73024 29.4574C8.84032 29.3754 8.81492 29.1867 8.67097 29.0309C8.53548 28.8996 8.34073 28.8422 8.23065 28.9488ZM7.31613 28.2844C7.25686 28.391 7.34153 28.5223 7.51089 28.6043C7.64637 28.6863 7.81573 28.6617 7.875 28.5469C7.93427 28.4402 7.8496 28.309 7.68024 28.227C7.51089 28.1777 7.3754 28.2023 7.31613 28.2844ZM10.0597 31.2047C9.92419 31.3113 9.975 31.5574 10.1698 31.7133C10.3645 31.902 10.6101 31.9266 10.7202 31.7953C10.8302 31.6887 10.7794 31.4426 10.6101 31.2867C10.4238 31.098 10.1698 31.0734 10.0597 31.2047ZM9.09436 29.9988C8.95887 30.0809 8.95887 30.2941 9.09436 30.4828C9.22984 30.6715 9.45847 30.7535 9.56855 30.6715C9.70403 30.5648 9.70403 30.3516 9.56855 30.1629C9.45 29.9742 9.22984 29.8922 9.09436 29.9988Z" fill="#9A9D21"/>
</svg>
