<svg width="42" height="42" viewBox="0 0 42 42" fill="none" xmlns="http://www.w3.org/2000/svg">
<g clip-path="url(#clip0_509_176)">
<path d="M20.9998 0.839966C9.86564 0.839966 0.839844 9.86577 0.839844 21C0.839844 32.1342 9.86564 41.16 20.9998 41.16C32.134 41.16 41.1598 32.1342 41.1598 21C41.1598 9.86577 32.134 0.839966 20.9998 0.839966ZM16.0648 29.3559H11.9824V16.2183H16.0648V29.3559ZM13.9984 14.6055C12.709 14.6055 11.8753 13.692 11.8753 12.5622C11.8753 11.4093 12.7342 10.5231 14.0509 10.5231C15.3676 10.5231 16.174 11.4093 16.1992 12.5622C16.1992 13.692 15.3676 14.6055 13.9984 14.6055ZM30.9748 29.3559H26.8924V22.0752C26.8924 20.3805 26.3002 19.2297 24.8239 19.2297C23.6962 19.2297 23.0263 20.0088 22.7302 20.7585C22.621 21.0252 22.5937 21.4032 22.5937 21.7791V29.3538H18.5092V20.4078C18.5092 18.7677 18.4567 17.3964 18.4021 16.2162H21.949L22.1359 18.0411H22.2178C22.7554 17.1843 24.0721 15.9201 26.275 15.9201C28.9609 15.9201 30.9748 17.7198 30.9748 21.588V29.3559Z" fill="#9A9D21"/>
</g>
<defs>
<clipPath id="clip0_509_176">
<rect width="42" height="42" fill="white"/>
</clipPath>
</defs>
</svg>
